<?xml version="1.0" encoding="utf-8" ?>
<svg xmlns="http://www.w3.org/2000/svg" xmlns:xlink="http://www.w3.org/1999/xlink" width="190" height="190">
	<path fill="#FBD167" d="M21.2582 79.9209C25.0747 80.6967 29.0209 82.075 32.6989 83.3367C45.5562 87.7473 58.02 93.4888 67.7806 103.17C70.7091 106.075 73.4564 109.095 74.8085 113.078C76.4993 118.058 76.5994 123.92 77.3131 129.126C78.122 135.027 79.2666 140.933 80.4703 146.766Q81.8846 153.692 83.6831 160.529C84.545 163.862 86.8374 170.676 86.8514 173.706C86.2356 174.09 85.903 173.979 85.1894 173.948C73.137 172.52 60.7672 171.381 49.8141 165.723C35.7996 158.485 28.6153 147.769 23.8947 132.978C19.6863 119.792 18.9237 109.823 18.915 96.2544C18.9115 90.6789 18.6201 85.0284 21.2582 79.9209ZM72.0494 129.635C73.7275 125.779 72.6953 117.587 71.1601 113.664C70.3484 111.589 68.4425 109.774 66.8921 108.219C58.1419 99.447 46.0057 92.7444 34.6611 87.8853C32.0994 86.7881 29.6997 85.9105 26.8798 86.0595C27.0311 86.6328 27.3551 86.9323 27.8038 87.2915C31.3611 90.1383 35.538 92.2548 39.3314 94.7729Q44.9574 98.5311 50.0889 102.941Q55.2203 107.35 59.7821 112.347C62.0448 114.855 64.4237 117.802 66.1866 120.673C67.9176 123.492 68.833 127.708 71.3186 129.879C71.7154 129.873 71.7602 129.93 72.0494 129.635Z"/>
	<path fill="#FBD167" d="M168.799 80.3225C169.261 80.3078 169.756 80.415 170.12 80.7181C172.036 82.3131 172.839 87.4206 173.124 89.8494C175.35 108.805 169.213 138.793 157.217 153.934C145.729 168.432 126.927 171.855 109.561 173.87C108.051 174.127 106.396 174.019 104.863 174.033C105.472 170.85 106.425 167.662 107.209 164.515C108.951 157.518 110.724 150.539 112.141 143.467C113.066 138.848 113.972 134.2 114.627 129.535C115.24 125.164 115.576 120.678 116.592 116.38C117.215 113.746 118.165 111.118 119.535 108.777C127.565 95.0587 154.082 84.1941 168.799 80.3225ZM119.605 132.104C121.725 128.741 123.418 125.131 125.477 121.733Q127.505 118.443 129.85 115.372Q132.196 112.301 134.835 109.479Q137.475 106.657 140.383 104.112Q143.291 101.567 146.438 99.324C151.722 95.5136 158.015 92.2336 162.758 87.7895C163.287 87.2938 163.87 86.8376 164.052 86.1277C163.905 86.0179 163.738 85.851 163.557 85.8153C159.915 86.3702 156.017 88.4902 152.729 90.1002C142.904 94.9113 129.696 101.822 123.138 110.767C119.411 115.851 118.236 125.002 119.168 131.135C119.24 131.608 119.269 131.764 119.605 132.104Z"/>
	<path fill="#FBD167" d="M143.729 46.0817C144.714 46.1542 145.305 46.2911 146.005 47.0233C147.271 48.3482 148.138 50.0836 148.839 51.7569C149.922 54.3421 153.92 67.9025 153.852 70.074C152.929 72.0986 148.041 74.2134 146.04 75.2481C139.976 78.3846 133.774 81.0112 127.866 84.4928C123.75 86.9179 120.082 90.3218 115.764 92.3429C115.312 92.3763 114.908 92.438 114.475 92.2707C113.265 88.5877 112.002 84.9468 110.501 81.3705C108.774 77.2552 106.532 73.3446 105.745 68.9008C105.433 67.1364 105.786 66.1684 106.814 64.7179C112.571 56.5936 133.906 47.7547 143.729 46.0817ZM110.248 68.4283C110.789 70.0041 111.526 72.9031 113.108 73.6748C113.347 73.7915 113.543 73.8196 113.799 73.7587C117.337 71.6778 119.449 67.6369 122.678 65.0158C127.755 60.8951 133.417 57.8203 138.798 54.1499C139.27 53.8277 139.841 53.5602 140.043 52.9968C139.929 52.6338 139.961 52.4989 139.606 52.3174C138.786 51.8976 137.202 52.0314 136.297 52.0798C130.857 53.8783 116.12 61.7274 112.103 65.5831C111.36 66.2962 110.839 67.2063 110.388 68.125Q110.313 68.2746 110.248 68.4283Z"/>
	<path fill="#FBD167" d="M44.9344 46.0098C47.1664 45.9487 49.8163 46.7343 51.9836 47.2749C60.391 49.3717 81.8383 58.3321 86.2485 65.9556C86.7156 66.763 86.9081 67.5806 86.7326 68.5043C85.9975 72.3734 82.8073 78.0541 81.1761 81.8625C79.9069 84.8258 78.9731 87.9518 78.1459 91.064C77.9482 91.9998 77.875 92.9602 77.7762 93.9106C75.2026 92.3999 72.8444 90.4889 70.4136 88.7603Q66.0792 85.6986 61.4988 83.019C53.894 78.5495 45.7536 75.0641 38.1577 70.5935C39.5386 64.9153 40.9253 59.2797 42.473 53.6409C43.1529 51.1636 43.6656 48.2514 44.9344 46.0098ZM75.9673 72.4851C76.8132 72.9101 77.8778 73.6367 78.8468 73.4954C79.1642 73.2594 79.5179 73.0324 79.7974 72.7528C80.5957 71.3669 81.132 69.9315 81.676 68.4351C81.3594 67.6169 81.0433 66.7363 80.4465 66.0786C76.5568 61.7918 65.2534 56.281 59.6402 53.8057C57.1722 52.7174 54.9663 51.9246 52.2542 52.0976C52.1258 52.4754 51.9615 52.7156 52.1438 53.1076C52.8253 54.5734 62.2279 59.8948 64.2356 61.2476Q66.7842 62.9909 69.1815 64.937C71.7816 67.0597 74.268 69.5673 75.9673 72.4851Z"/>
	<path fill="#FBD167" d="M95.6551 16.1943C95.903 16.1695 96.1603 16.1622 96.4017 16.2353C99.4412 17.1564 113.751 38.4355 115.5 42.2054C110.471 47.0094 102.03 51.653 96.1881 56.0481C95.3696 55.8791 78.3491 43.9925 76.4832 42.5464C78.1816 37.1811 91.1428 19.6366 95.6551 16.1943ZM96.7696 32.4484C98.8049 33.8273 105.378 39.0717 107.198 39.0501C107.562 38.8106 107.694 38.7971 107.779 38.342C108.047 36.906 106.72 34.9303 105.916 33.8155C104.248 31.5051 99.168 24.4248 96.5023 24.0253C95.9218 23.9383 95.2967 24.0123 94.7156 24.0679C92.0968 25.9627 84.4655 35.3316 84.0234 38.3621C84.0074 38.4717 84.0009 38.5783 83.9957 38.6889C84.2725 39.0059 84.3075 39.1328 84.7536 39.1593C87.9 39.3459 93.8499 31.3972 96.7696 32.4484Z"/>
	<path fill="#FBD167" d="M95.4663 79.8734C95.5943 79.9089 95.7185 79.9483 95.8388 80.0055C97.5419 80.816 99.1622 85.083 99.7614 86.8403C102.008 93.4298 102.985 107.045 102.96 114.047C102.95 116.863 102.595 119.688 102.389 122.496C101.688 132.084 100.78 146.907 96.6432 155.372C96.289 155.385 95.8717 155.476 95.5653 155.261C93.4814 153.804 91.9954 143.398 91.5761 140.777C90.2307 132.367 89.2134 123.25 89.0702 114.732C88.9256 106.126 90.5556 86.665 95.4663 79.8734Z"/>
</svg>
